<svg width="1179" height="732" viewBox="0 0 1179 732" fill="none" xmlns="http://www.w3.org/2000/svg">
<g id="Group 1">
<rect id="Rectangle 1" x="0.5" y="0.5" width="1178" height="731" rx="6.5" fill="#EC2B2B" stroke="black"/>
<g id="Group">
<g id="i like food">
<path id="Vector" fill-rule="evenodd" clip-rule="evenodd" d="M247.183 45.8811C247.866 47.7459 248.515 49.6681 249.028 51.619H236.254L240.25 58.3323L241.787 60.9144L240.968 61.23V80.3084C243.654 82.0015 245.687 84.3225 246.811 86.981C247.936 89.6396 248.102 92.5176 247.289 95.2551C246.476 97.9926 244.72 100.468 242.241 102.371C239.762 104.275 236.67 105.522 233.352 105.957L233.283 106.129C231.768 111.058 228.346 115.423 223.555 118.539C218.763 121.655 212.874 123.345 206.815 123.343H138.509C132.456 123.339 126.575 121.646 121.79 118.531C117.006 115.415 113.588 111.053 112.075 106.129L112.007 105.957C108.685 105.526 105.589 104.283 103.106 102.381C100.622 100.479 98.8619 98.0043 98.0451 95.2661C97.2284 92.5278 97.3916 89.648 98.5142 86.9873C99.6369 84.3266 101.669 82.0033 104.356 80.3084V60.9144L101.658 56.3814L100.156 53.7994L103.229 52.5371L105.381 51.619H95.6475C99.4108 37.4706 108.614 24.7563 121.836 15.4391C135.057 6.12184 151.563 0.7198 168.803 0.0669923C186.044 -0.585816 203.061 3.54691 217.227 11.8271C231.393 20.1073 241.92 32.0745 247.183 45.8811V45.8811ZM121.433 51.619C120.912 51.6172 120.398 51.7153 119.93 51.9059L109.343 56.3814L112.382 61.5169L116.856 59.6234C118.282 59.0227 119.855 58.7099 121.45 58.7099C123.045 58.7099 124.618 59.0227 126.043 59.6234L133.557 62.7792C134.034 62.981 134.56 63.0861 135.094 63.0861C135.628 63.0861 136.154 62.981 136.631 62.7792L144.179 59.6234C145.604 59.0227 147.177 58.7099 148.772 58.7099C150.367 58.7099 151.94 59.0227 153.366 59.6234L160.879 62.7792C161.356 62.981 161.882 63.0861 162.416 63.0861C162.95 63.0861 163.476 62.981 163.953 62.7792L171.501 59.6234C172.926 59.0227 174.499 58.7099 176.094 58.7099C177.689 58.7099 179.262 59.0227 180.688 59.6234L188.202 62.7792C188.655 62.9717 189.154 63.0768 189.662 63.0867C190.171 63.0967 190.675 63.0112 191.139 62.8366L200.975 59.193C202.281 58.7067 203.695 58.4555 205.124 58.4555C206.554 58.4555 207.967 58.7067 209.274 59.193L219.11 62.8366C219.569 63.0068 220.067 63.0899 220.569 63.08C221.071 63.07 221.564 62.9673 222.013 62.7792L232.6 58.3323L229.561 53.1969L224.711 55.2339C223.359 55.8027 221.874 56.1132 220.362 56.1429C218.851 56.1727 217.35 55.921 215.968 55.406L206.507 51.8772C206.078 51.7128 205.613 51.6249 205.141 51.619H205.107C204.635 51.6249 204.17 51.7128 203.741 51.8772L194.247 55.406C192.864 55.921 191.364 56.1727 189.852 56.1429C188.34 56.1132 186.855 55.8027 185.503 55.2339L177.648 51.9346C177.173 51.7298 176.646 51.6217 176.111 51.619H176.077C175.557 51.6172 175.043 51.7153 174.575 51.9059L167.027 55.1191C165.601 55.7198 164.028 56.0326 162.433 56.0326C160.838 56.0326 159.265 55.7198 157.84 55.1191L150.326 51.9633C149.85 51.7585 149.324 51.6504 148.789 51.6477H148.755C148.235 51.6459 147.721 51.744 147.252 51.9346L139.705 55.1191C138.279 55.7198 136.706 56.0326 135.111 56.0326C133.516 56.0326 131.943 55.7198 130.517 55.1191L123.004 51.9633C122.528 51.7585 122.002 51.6504 121.467 51.6477H121.433V51.619ZM121.433 45.8811H104.698C109.649 34.1359 118.811 23.9682 130.924 16.777C143.037 9.58576 157.505 5.72451 172.338 5.72451C187.17 5.72451 201.638 9.58576 213.751 16.777C225.864 23.9682 235.026 34.1359 239.977 45.8811H232.839L232.634 45.5082L231.746 45.8811H121.399H121.433ZM225.087 67.9146L229.731 65.9637H234.171V71.7016H111.221V68.4023L112.382 67.9146L117.027 65.9637H125.873L130.517 67.9146C131.943 68.5153 133.516 68.8281 135.111 68.8281C136.706 68.8281 138.279 68.5153 139.705 67.9146L144.349 65.9637H153.195L157.84 67.9146C159.265 68.5153 160.838 68.8281 162.433 68.8281C164.028 68.8281 165.601 68.5153 167.027 67.9146L171.672 65.9637H180.517L185.162 67.9146C186.514 68.4834 187.999 68.7939 189.511 68.8236C191.022 68.8534 192.523 68.6018 193.905 68.0867L199.609 65.9637H210.64L216.343 68.0867C217.726 68.6018 219.226 68.8534 220.738 68.8236C222.25 68.7939 223.735 68.4834 225.087 67.9146V67.9146ZM116.754 77.4395L172.662 91.526L228.604 77.4395H116.754ZM114.602 83.1774H115.763L172.662 97.5221L229.595 83.1774H230.722C233.439 83.1774 236.045 84.0842 237.967 85.6982C239.888 87.3123 240.968 89.5015 240.968 91.7842C240.968 94.0669 239.888 96.256 237.967 97.8701C236.045 99.4842 233.439 100.391 230.722 100.391H114.602C111.885 100.391 109.279 99.4842 107.357 97.8701C105.436 96.256 104.356 94.0669 104.356 91.7842C104.356 89.5015 105.436 87.3123 107.357 85.6982C109.279 84.0842 111.885 83.1774 114.602 83.1774V83.1774ZM119.213 106.129C120.624 109.482 123.237 112.385 126.692 114.44C130.148 116.495 134.276 117.601 138.509 117.605H206.815C211.054 117.607 215.19 116.504 218.652 114.449C222.114 112.393 224.732 109.486 226.145 106.129H119.213V106.129Z" fill="black"/>
<path id="path6 fill copy" fill-rule="evenodd" clip-rule="evenodd" d="M1135.16 45.8811C1135.84 47.7459 1136.49 49.6681 1137 51.619H1124.23L1128.22 58.3323L1129.76 60.9144L1128.94 61.23V80.3084C1131.63 82.0015 1133.66 84.3225 1134.78 86.981C1135.91 89.6396 1136.07 92.5176 1135.26 95.2551C1134.45 97.9926 1132.69 100.468 1130.21 102.371C1127.73 104.275 1124.64 105.522 1121.32 105.957L1121.26 106.129C1119.74 111.058 1116.32 115.423 1111.53 118.539C1106.74 121.655 1100.85 123.345 1094.79 123.343H1026.48C1020.43 123.339 1014.55 121.646 1009.76 118.531C1004.98 115.415 1001.56 111.053 1000.05 106.129L999.979 105.957C996.658 105.526 993.562 104.283 991.078 102.381C988.595 100.479 986.834 98.0043 986.018 95.2661C985.201 92.5278 985.364 89.648 986.487 86.9873C987.609 84.3266 989.642 82.0033 992.329 80.3084V60.9144L989.631 56.3814L988.128 53.7994L991.202 52.5371L993.354 51.619H983.62C987.383 37.4706 996.586 24.7563 1009.81 15.4391C1023.03 6.12184 1039.54 0.7198 1056.78 0.0669923C1074.02 -0.585816 1091.03 3.54691 1105.2 11.8271C1119.36 20.1073 1129.89 32.0745 1135.16 45.8811V45.8811ZM1009.41 51.619C1008.88 51.6172 1008.37 51.7153 1007.9 51.9059L997.315 56.3814L1000.35 61.5169L1004.83 59.6234C1006.25 59.0227 1007.83 58.7099 1009.42 58.7099C1011.02 58.7099 1012.59 59.0227 1014.02 59.6234L1021.53 62.7792C1022.01 62.981 1022.53 63.0861 1023.07 63.0861C1023.6 63.0861 1024.13 62.981 1024.6 62.7792L1032.15 59.6234C1033.58 59.0227 1035.15 58.7099 1036.74 58.7099C1038.34 58.7099 1039.91 59.0227 1041.34 59.6234L1048.85 62.7792C1049.33 62.981 1049.85 63.0861 1050.39 63.0861C1050.92 63.0861 1051.45 62.981 1051.93 62.7792L1059.47 59.6234C1060.9 59.0227 1062.47 58.7099 1064.07 58.7099C1065.66 58.7099 1067.23 59.0227 1068.66 59.6234L1076.17 62.7792C1076.63 62.9717 1077.13 63.0768 1077.63 63.0867C1078.14 63.0967 1078.65 63.0112 1079.11 62.8366L1088.95 59.193C1090.25 58.7067 1091.67 58.4555 1093.1 58.4555C1094.53 58.4555 1095.94 58.7067 1097.25 59.193L1107.08 62.8366C1107.54 63.0068 1108.04 63.0899 1108.54 63.08C1109.04 63.07 1109.54 62.9673 1109.99 62.7792L1120.57 58.3323L1117.53 53.1969L1112.68 55.2339C1111.33 55.8027 1109.85 56.1132 1108.33 56.1429C1106.82 56.1727 1105.32 55.921 1103.94 55.406L1094.48 51.8772C1094.05 51.7128 1093.59 51.6249 1093.11 51.619H1093.08C1092.61 51.6249 1092.14 51.7128 1091.71 51.8772L1082.22 55.406C1080.84 55.921 1079.34 56.1727 1077.82 56.1429C1076.31 56.1132 1074.83 55.8027 1073.48 55.2339L1065.62 51.9346C1065.14 51.7298 1064.62 51.6217 1064.08 51.619H1064.05C1063.53 51.6172 1063.02 51.7153 1062.55 51.9059L1055 55.0904C1053.57 55.6911 1052 56.0039 1050.41 56.0039C1048.81 56.0039 1047.24 55.6911 1045.81 55.0904L1038.3 51.9346C1037.82 51.7298 1037.3 51.6217 1036.76 51.619H1036.73C1036.21 51.6172 1035.69 51.7153 1035.22 51.9059L1027.68 55.0904C1026.25 55.6911 1024.68 56.0039 1023.08 56.0039C1021.49 56.0039 1019.92 55.6911 1018.49 55.0904L1010.98 51.9346C1010.5 51.7298 1009.97 51.6217 1009.44 51.619H1009.41V51.619ZM1009.41 45.8811H992.67C997.621 34.1359 1006.78 23.9682 1018.9 16.777C1031.01 9.58576 1045.48 5.72451 1060.31 5.72451C1075.14 5.72451 1089.61 9.58576 1101.72 16.777C1113.84 23.9682 1123 34.1359 1127.95 45.8811H1120.81L1120.61 45.5082L1119.72 45.8811H1009.37H1009.41ZM1113.06 67.9146L1117.7 65.9637H1122.14V71.7016H999.194V68.4023L1000.35 67.9146L1005 65.9637H1013.85L1018.49 67.9146C1019.92 68.5153 1021.49 68.8281 1023.08 68.8281C1024.68 68.8281 1026.25 68.5153 1027.68 67.9146L1032.32 65.9637H1041.17L1045.81 67.9146C1047.24 68.5153 1048.81 68.8281 1050.41 68.8281C1052 68.8281 1053.57 68.5153 1055 67.9146L1059.64 65.9637H1068.49L1073.13 67.9146C1074.49 68.4834 1075.97 68.7939 1077.48 68.8236C1078.99 68.8534 1080.5 68.6018 1081.88 68.0867L1087.58 65.9637H1098.61L1104.32 68.0867C1105.7 68.6018 1107.2 68.8534 1108.71 68.8236C1110.22 68.7939 1111.71 68.4834 1113.06 67.9146V67.9146ZM1004.73 77.4395L1060.63 91.526L1116.58 77.4395H1004.73ZM1002.57 83.1774H1003.74L1060.63 97.5221L1117.57 83.1774H1118.69C1121.41 83.1774 1124.02 84.0842 1125.94 85.6982C1127.86 87.3123 1128.94 89.5015 1128.94 91.7842C1128.94 94.0669 1127.86 96.256 1125.94 97.8701C1124.02 99.4842 1121.41 100.391 1118.69 100.391H1002.57C999.857 100.391 997.251 99.4842 995.33 97.8701C993.408 96.256 992.329 94.0669 992.329 91.7842C992.329 89.5015 993.408 87.3123 995.33 85.6982C997.251 84.0842 999.857 83.1774 1002.57 83.1774V83.1774ZM1007.19 106.129C1008.6 109.482 1011.21 112.385 1014.66 114.44C1018.12 116.495 1022.25 117.601 1026.48 117.605H1094.79C1099.03 117.607 1103.16 116.504 1106.62 114.449C1110.09 112.393 1112.7 109.486 1114.12 106.129H1007.19Z" fill="black"/>
<path id="Vector_2" fill-rule="evenodd" clip-rule="evenodd" d="M708.69 60.2833C706.58 55.2316 702.652 50.8558 697.451 47.7616C692.251 44.6673 686.033 43.0077 679.66 43.0122H536.218C529.845 43.0077 523.628 44.6673 518.427 47.7616C513.226 50.8558 509.299 55.2316 507.189 60.2833C502.061 60.643 497.282 62.61 493.802 65.7934C490.321 68.9768 488.394 73.1437 488.402 77.466C488.411 81.7883 490.355 85.9496 493.848 89.1233C497.341 92.2969 502.128 94.2505 507.257 94.5958C505.596 98.4923 505.076 102.667 505.741 106.768C506.406 110.869 508.235 114.775 511.075 118.157C513.916 121.539 517.683 124.297 522.059 126.198C526.435 128.099 531.292 129.088 536.218 129.08H679.66C684.584 129.081 689.436 128.088 693.808 126.185C698.18 124.282 701.944 121.525 704.782 118.145C707.621 114.765 709.451 110.862 710.12 106.763C710.788 102.665 710.274 98.4923 708.622 94.5958C713.751 94.2505 718.537 92.2969 722.03 89.1233C725.523 85.9496 727.467 81.7883 727.476 77.466C727.485 73.1437 725.557 68.9768 722.077 65.7934C718.596 62.61 713.818 60.643 708.69 60.2833V60.2833ZM679.66 48.7501H536.218C531.691 48.7471 527.256 49.8241 523.429 51.8556C519.602 53.8872 516.54 56.7898 514.6 60.2259H701.279C699.339 56.7898 696.277 53.8872 692.45 51.8556C688.622 49.8241 684.187 48.7471 679.66 48.7501V48.7501ZM647.761 123.343C651.329 120.924 654.205 117.865 656.179 114.389C658.153 110.914 659.175 107.111 659.168 103.26H652.338C652.338 108.586 649.819 113.694 645.336 117.461C640.852 121.227 634.771 123.343 628.431 123.343H613.609C617.176 120.924 620.052 117.865 622.026 114.389C624 110.914 625.022 107.111 625.016 103.26H618.185C618.185 108.586 615.666 113.694 611.183 117.461C606.699 121.227 600.619 123.343 594.278 123.343H579.456C583.023 120.924 585.899 117.865 587.873 114.389C589.848 110.914 590.869 107.111 590.863 103.26H584.032C584.032 108.586 581.514 113.694 577.03 117.461C572.547 121.227 566.466 123.343 560.125 123.343H536.218C529.878 123.343 523.797 121.227 519.314 117.461C514.83 113.694 512.311 108.586 512.311 103.26C512.311 97.9338 514.83 92.8257 519.314 89.0595C523.797 85.2933 529.878 83.1774 536.218 83.1774H679.66C686.001 83.1774 692.081 85.2933 696.565 89.0595C701.048 92.8257 703.567 97.9338 703.567 103.26C703.567 108.586 701.048 113.694 696.565 117.461C692.081 121.227 686.001 123.343 679.66 123.343H647.761ZM536.218 77.4395C531.165 77.4411 526.191 78.4891 521.735 80.4907C517.279 82.4924 513.479 85.3859 510.672 88.9153H508.896C505.273 88.9153 501.798 87.7062 499.236 85.5541C496.674 83.402 495.235 80.4831 495.235 77.4395C495.235 74.396 496.674 71.4771 499.236 69.3249C501.798 67.1728 505.273 65.9638 508.896 65.9638H706.982C710.605 65.9638 714.08 67.1728 716.642 69.3249C719.204 71.4771 720.643 74.396 720.643 77.4395C720.643 80.4831 719.204 83.402 716.642 85.5541C714.08 87.7062 710.605 88.9153 706.982 88.9153H705.206C702.399 85.3859 698.599 82.4924 694.144 80.4907C689.688 78.4891 684.713 77.4411 679.66 77.4395H536.218Z" fill="black"/>
<path id="Vector_3" fill-rule="evenodd" clip-rule="evenodd" d="M297.149 329.906C304.395 329.906 311.345 327.488 316.469 323.184C321.593 318.88 324.471 313.042 324.471 306.955C324.471 300.868 321.593 295.03 316.469 290.726C311.345 286.421 304.395 284.003 297.149 284.003C289.903 284.003 282.953 286.421 277.829 290.726C272.705 295.03 269.827 300.868 269.827 306.955C269.827 313.042 272.705 318.88 277.829 323.184C282.953 327.488 289.903 329.906 297.149 329.906ZM317.641 306.955C317.641 311.52 315.482 315.899 311.639 319.127C307.796 322.355 302.584 324.169 297.149 324.169C291.714 324.169 286.502 322.355 282.659 319.127C278.816 315.899 276.657 311.52 276.657 306.955C276.657 302.39 278.816 298.011 282.659 294.783C286.502 291.555 291.714 289.741 297.149 289.741C302.584 289.741 307.796 291.555 311.639 294.783C315.482 298.011 317.641 302.39 317.641 306.955ZM307.395 223.756V218.018H334.717V200.804H300.564C296.941 200.804 293.466 202.013 290.904 204.165C288.342 206.317 286.903 209.236 286.903 212.28V240.969H239.089L234.547 252.445L232.259 258.183H239.738L252.75 372.941H341.548L354.56 258.183H362.039L359.751 252.445L355.209 240.969H307.395V223.756ZM293.734 212.28V240.969H300.564V212.28H327.886V206.542H300.564C298.753 206.542 297.015 207.146 295.734 208.223C294.453 209.299 293.734 210.758 293.734 212.28ZM300.564 246.707H350.291L352.579 252.445H241.719L244.007 246.707H300.564ZM347.695 258.183H246.603L258.966 367.203H335.332L347.695 258.183Z" fill="black"/>
<path id="Vector_4" fill-rule="evenodd" clip-rule="evenodd" d="M604.524 263.921H584.032V275.397H563.541V286.872H543.049V327.038H532.803L533.623 332.776L546.464 424.582H669.414L682.256 332.776L683.075 327.038H672.829V286.872H652.338V275.397H631.846V263.921H604.524ZM665.999 327.038V292.61H652.338V304.086H662.584V327.038H665.999ZM655.753 327.038V309.824H642.092V327.038H655.753ZM635.261 344.251V298.348H621.6V353.346C627.065 351.338 631.744 348.182 635.261 344.251ZM614.77 355.153V286.872H601.109V355.153C605.616 355.923 610.262 355.923 614.77 355.153ZM594.278 353.346V298.348H580.617V344.251C584.162 348.221 588.868 351.353 594.278 353.346V353.346ZM573.786 327.038V309.824H560.125V327.038H573.786ZM553.295 327.038V304.086H563.541V292.61H549.879V327.038H553.295ZM645.507 292.61V281.135H631.846V292.61H642.092V304.086H645.507V292.61ZM625.016 292.61V269.659H611.354V281.135H621.6V292.61H625.016ZM604.524 281.135V269.659H590.863V292.61H594.278V281.135H604.524ZM584.032 292.61V281.135H570.371V304.086H573.786V292.61H584.032ZM607.939 361.465C617.623 361.463 626.994 358.581 634.389 353.33C641.785 348.078 646.728 340.797 648.342 332.776H675.391L663.335 418.844H552.543L540.487 332.776H567.536C569.15 340.797 574.093 348.078 581.489 353.33C588.885 358.581 598.255 361.463 607.939 361.465V361.465Z" fill="black"/>
<path id="Vector_5" fill-rule="evenodd" clip-rule="evenodd" d="M887.992 246.707V252.445H874.331V246.707H887.992ZM901.653 246.707H894.823V252.445H901.653V246.707ZM833.348 246.707V246.994C829.657 247.626 826.318 249.266 823.851 251.658C821.385 254.05 819.93 257.06 819.711 260.219C819.493 263.378 820.524 266.509 822.645 269.124C824.765 271.74 827.856 273.693 831.435 274.679L831.64 275.397L835.465 288.249C835.831 289.493 836.682 290.599 837.883 291.389C839.084 292.179 840.565 292.609 842.091 292.61H842.125L866.1 363.043C866.508 364.24 867.368 365.293 868.551 366.044C869.734 366.794 871.175 367.201 872.657 367.203H889.666C891.148 367.201 892.589 366.794 893.772 366.044C894.955 365.293 895.815 364.24 896.223 363.043L920.198 292.61C921.729 292.616 923.219 292.189 924.426 291.398C925.634 290.607 926.49 289.498 926.858 288.249L930.683 275.397L930.888 274.679C934.467 273.693 937.558 271.74 939.678 269.124C941.799 266.509 942.83 263.378 942.612 260.219C942.394 257.06 940.938 254.05 938.472 251.658C936.005 249.266 932.667 247.626 928.975 246.994V246.707C928.975 236.055 923.938 225.839 914.971 218.306C906.004 210.774 893.843 206.542 881.162 206.542C868.48 206.542 856.319 210.774 847.352 218.306C838.385 225.839 833.348 236.055 833.348 246.707ZM847.009 246.707H867.5V252.445H836.763C834.046 252.445 831.439 253.352 829.518 254.966C827.597 256.58 826.517 258.769 826.517 261.052C826.517 263.335 827.597 265.524 829.518 267.138C831.439 268.752 834.046 269.659 836.763 269.659H925.56C928.278 269.659 930.884 268.752 932.805 267.138C934.727 265.524 935.806 263.335 935.806 261.052C935.806 258.769 934.727 256.58 932.805 254.966C930.884 253.352 928.278 252.445 925.56 252.445H915.314V246.707H922.145C922.145 237.576 917.827 228.82 910.141 222.363C902.455 215.907 892.031 212.28 881.162 212.28C870.292 212.28 859.868 215.907 852.182 222.363C844.496 228.82 840.178 237.576 840.178 246.707H847.009ZM842.091 286.872L838.675 275.397H923.648L920.232 286.872H842.091ZM872.657 361.465L849.229 292.61H913.094L889.666 361.465H872.657V361.465ZM676.245 694.262C696.172 694.262 715.283 687.612 729.374 675.776C743.465 663.939 751.381 647.885 751.381 631.145C751.381 614.406 743.465 598.352 729.374 586.515C715.283 574.678 696.172 568.029 676.245 568.029C656.317 568.029 637.206 574.678 623.116 586.515C609.025 598.352 601.109 614.406 601.109 631.145C601.109 647.885 609.025 663.939 623.116 675.776C637.206 687.612 656.317 694.262 676.245 694.262ZM758.212 631.145C758.212 649.407 749.576 666.92 734.204 679.833C718.832 692.746 697.984 700 676.245 700C654.506 700 633.657 692.746 618.286 679.833C602.914 666.92 594.278 649.407 594.278 631.145C594.278 612.884 602.914 595.371 618.286 582.458C633.657 569.545 654.506 562.291 676.245 562.291C697.984 562.291 718.832 569.545 734.204 582.458C749.576 595.371 758.212 612.884 758.212 631.145ZM661.286 682.012L668.253 679.516C670.781 678.616 673.499 678.153 676.245 678.153C678.991 678.153 681.708 678.616 684.237 679.516L691.204 682.012C692.725 682.553 694.428 682.613 695.998 682.181C697.568 681.748 698.898 680.852 699.742 679.659L703.635 674.208C705.053 672.231 706.93 670.514 709.153 669.159C711.377 667.804 713.902 666.838 716.579 666.319L723.922 664.884C725.523 664.572 726.937 663.785 727.903 662.667C728.869 661.55 729.323 660.178 729.182 658.802L728.533 652.49C728.293 650.187 728.608 647.868 729.459 645.669C730.31 643.471 731.679 641.439 733.485 639.695L738.437 634.904C739.514 633.86 740.106 632.526 740.106 631.145C740.106 629.765 739.514 628.43 738.437 627.387L733.485 622.596C731.679 620.852 730.31 618.82 729.459 616.621C728.608 614.423 728.293 612.103 728.533 609.8L729.216 603.489C729.364 602.104 728.909 600.722 727.936 599.598C726.962 598.474 725.536 597.685 723.922 597.378L716.579 595.943C713.896 595.428 711.364 594.464 709.134 593.108C706.905 591.753 705.023 590.034 703.601 588.054L699.742 582.603C698.887 581.42 697.553 580.536 695.984 580.114C694.415 579.692 692.717 579.761 691.204 580.308L684.237 582.775C681.708 583.675 678.991 584.138 676.245 584.138C673.499 584.138 670.781 583.675 668.253 582.775L661.286 580.279C659.765 579.737 658.061 579.677 656.491 580.11C654.922 580.542 653.591 581.438 652.748 582.632L648.854 588.083C647.436 590.059 645.56 591.777 643.336 593.132C641.113 594.487 638.587 595.453 635.91 595.972L628.568 597.407C626.966 597.719 625.553 598.506 624.587 599.623C623.621 600.741 623.167 602.113 623.308 603.489L623.957 609.8C624.197 612.103 623.882 614.423 623.031 616.621C622.18 618.82 620.811 620.852 619.005 622.596L614.053 627.387C612.976 628.43 612.383 629.765 612.383 631.145C612.383 632.526 612.976 633.86 614.053 634.904L619.005 639.695C620.811 641.439 622.18 643.471 623.031 645.669C623.882 647.868 624.197 650.187 623.957 652.49L623.274 658.802C623.125 660.186 623.58 661.569 624.554 662.693C625.527 663.817 626.954 664.606 628.568 664.913L635.91 666.347C638.593 666.863 641.125 667.827 643.355 669.183C645.585 670.538 647.467 672.257 648.888 674.237L652.748 679.688C653.602 680.871 654.937 681.755 656.506 682.177C658.075 682.599 659.772 682.53 661.286 681.983V682.012ZM670.917 684.795C672.603 684.195 674.414 683.886 676.245 683.886C678.075 683.886 679.887 684.195 681.573 684.795L688.54 687.291C691.57 688.371 694.963 688.496 698.095 687.642C701.226 686.788 703.885 685.013 705.582 682.643L709.475 677.192C710.42 675.87 711.671 674.72 713.156 673.813C714.641 672.906 716.328 672.26 718.116 671.913L725.459 670.479C728.668 669.86 731.502 668.288 733.441 666.053C735.38 663.818 736.293 661.07 736.012 658.314L735.329 652.003C735.168 650.464 735.378 648.913 735.947 647.444C736.517 645.975 737.433 644.618 738.642 643.453L743.594 638.662C745.747 636.575 746.932 633.907 746.932 631.145C746.932 628.384 745.747 625.715 743.594 623.629L738.642 618.838C737.437 617.677 736.523 616.324 735.954 614.86C735.385 613.396 735.173 611.851 735.329 610.317L736.012 604.005C736.302 601.245 735.393 598.49 733.453 596.249C731.514 594.008 728.674 592.432 725.459 591.812L718.116 590.378C716.328 590.031 714.641 589.384 713.156 588.477C711.671 587.57 710.42 586.421 709.475 585.099L705.582 579.648C703.884 577.272 701.219 575.492 698.08 574.637C694.941 573.783 691.54 573.912 688.506 575L681.573 577.496C679.887 578.096 678.075 578.405 676.245 578.405C674.414 578.405 672.603 578.096 670.917 577.496L663.95 575C660.919 573.92 657.526 573.795 654.395 574.649C651.264 575.503 648.605 577.278 646.908 579.648L643.014 585.099C642.07 586.421 640.818 587.57 639.334 588.477C637.849 589.384 636.162 590.031 634.374 590.378L627.031 591.812C623.822 592.431 620.987 594.003 619.048 596.238C617.109 598.473 616.196 601.221 616.477 603.977L617.16 610.288C617.322 611.827 617.112 613.378 616.542 614.847C615.973 616.316 615.057 617.673 613.848 618.838L608.896 623.629C606.742 625.715 605.557 628.384 605.557 631.145C605.557 633.907 606.742 636.575 608.896 638.662L613.848 643.453C615.052 644.614 615.966 645.967 616.535 647.431C617.105 648.894 617.317 650.44 617.16 651.974L616.477 658.286C616.188 661.046 617.097 663.801 619.036 666.042C620.976 668.283 623.816 669.859 627.031 670.479L634.374 671.913C636.162 672.26 637.849 672.906 639.334 673.813C640.818 674.72 642.07 675.87 643.014 677.192L646.908 682.643C648.606 685.019 651.271 686.799 654.41 687.653C657.548 688.508 660.949 688.379 663.984 687.291L670.917 684.795ZM683.075 593.849C683.075 593.088 683.435 592.359 684.076 591.821C684.716 591.282 685.585 590.98 686.491 590.98C687.396 590.98 688.265 591.282 688.906 591.821C689.546 592.359 689.906 593.088 689.906 593.849C689.906 594.61 689.546 595.34 688.906 595.878C688.265 596.416 687.396 596.718 686.491 596.718C685.585 596.718 684.716 596.416 684.076 595.878C683.435 595.34 683.075 594.61 683.075 593.849ZM703.567 599.587C703.567 598.826 703.927 598.096 704.567 597.558C705.208 597.02 706.077 596.718 706.982 596.718C707.888 596.718 708.757 597.02 709.397 597.558C710.038 598.096 710.398 598.826 710.398 599.587C710.398 600.348 710.038 601.078 709.397 601.616C708.757 602.154 707.888 602.456 706.982 602.456C706.077 602.456 705.208 602.154 704.567 601.616C703.927 601.078 703.567 600.348 703.567 599.587ZM665.999 602.456C665.999 601.695 666.359 600.965 666.999 600.427C667.64 599.889 668.508 599.587 669.414 599.587C670.32 599.587 671.189 599.889 671.829 600.427C672.47 600.965 672.83 601.695 672.83 602.456C672.83 603.217 672.47 603.947 671.829 604.485C671.189 605.023 670.32 605.325 669.414 605.325C668.508 605.325 667.64 605.023 666.999 604.485C666.359 603.947 665.999 603.217 665.999 602.456ZM645.507 602.456C645.507 601.695 645.867 600.965 646.508 600.427C647.148 599.889 648.017 599.587 648.923 599.587C649.828 599.587 650.697 599.889 651.338 600.427C651.978 600.965 652.338 601.695 652.338 602.456C652.338 603.217 651.978 603.947 651.338 604.485C650.697 605.023 649.828 605.325 648.923 605.325C648.017 605.325 647.148 605.023 646.508 604.485C645.867 603.947 645.507 603.217 645.507 602.456ZM655.753 588.111C655.753 587.35 656.113 586.621 656.753 586.083C657.394 585.545 658.263 585.242 659.168 585.242C660.074 585.242 660.943 585.545 661.583 586.083C662.224 586.621 662.584 587.35 662.584 588.111C662.584 588.872 662.224 589.602 661.583 590.14C660.943 590.678 660.074 590.98 659.168 590.98C658.263 590.98 657.394 590.678 656.753 590.14C656.113 589.602 655.753 588.872 655.753 588.111ZM628.431 611.063C628.431 610.302 628.791 609.572 629.431 609.034C630.072 608.496 630.94 608.194 631.846 608.194C632.752 608.194 633.621 608.496 634.261 609.034C634.902 609.572 635.261 610.302 635.261 611.063C635.261 611.824 634.902 612.553 634.261 613.091C633.621 613.629 632.752 613.932 631.846 613.932C630.94 613.932 630.072 613.629 629.431 613.091C628.791 612.553 628.431 611.824 628.431 611.063ZM638.677 628.276C638.677 627.516 639.037 626.786 639.677 626.248C640.318 625.71 641.186 625.408 642.092 625.408C642.998 625.408 643.867 625.71 644.507 626.248C645.147 626.786 645.507 627.516 645.507 628.276C645.507 629.037 645.147 629.767 644.507 630.305C643.867 630.843 642.998 631.145 642.092 631.145C641.186 631.145 640.318 630.843 639.677 630.305C639.037 629.767 638.677 629.037 638.677 628.276ZM638.677 645.49C638.677 644.729 639.037 644 639.677 643.461C640.318 642.923 641.186 642.621 642.092 642.621C642.998 642.621 643.867 642.923 644.507 643.461C645.147 644 645.507 644.729 645.507 645.49C645.507 646.251 645.147 646.981 644.507 647.519C643.867 648.057 642.998 648.359 642.092 648.359C641.186 648.359 640.318 648.057 639.677 647.519C639.037 646.981 638.677 646.251 638.677 645.49ZM652.338 665.573C652.338 664.812 652.698 664.082 653.338 663.544C653.979 663.006 654.847 662.704 655.753 662.704C656.659 662.704 657.528 663.006 658.168 663.544C658.809 664.082 659.168 664.812 659.168 665.573C659.168 666.334 658.809 667.063 658.168 667.601C657.528 668.139 656.659 668.442 655.753 668.442C654.847 668.442 653.979 668.139 653.338 667.601C652.698 667.063 652.338 666.334 652.338 665.573ZM669.414 659.835C669.414 659.074 669.774 658.344 670.415 657.806C671.055 657.268 671.924 656.966 672.83 656.966C673.735 656.966 674.604 657.268 675.245 657.806C675.885 658.344 676.245 659.074 676.245 659.835C676.245 660.596 675.885 661.325 675.245 661.863C674.604 662.402 673.735 662.704 672.83 662.704C671.924 662.704 671.055 662.402 670.415 661.863C669.774 661.325 669.414 660.596 669.414 659.835ZM686.491 671.311C686.491 670.55 686.85 669.82 687.491 669.282C688.131 668.744 689 668.442 689.906 668.442C690.812 668.442 691.68 668.744 692.321 669.282C692.961 669.82 693.321 670.55 693.321 671.311C693.321 672.071 692.961 672.801 692.321 673.339C691.68 673.877 690.812 674.18 689.906 674.18C689 674.18 688.131 673.877 687.491 673.339C686.85 672.801 686.491 672.071 686.491 671.311ZM700.152 654.097C700.152 653.336 700.512 652.606 701.152 652.068C701.793 651.53 702.661 651.228 703.567 651.228C704.473 651.228 705.342 651.53 705.982 652.068C706.623 652.606 706.982 653.336 706.982 654.097C706.982 654.858 706.623 655.588 705.982 656.126C705.342 656.664 704.473 656.966 703.567 656.966C702.661 656.966 701.793 656.664 701.152 656.126C700.512 655.588 700.152 654.858 700.152 654.097ZM720.643 642.621C720.643 641.86 721.003 641.131 721.644 640.593C722.284 640.054 723.153 639.752 724.059 639.752C724.965 639.752 725.833 640.054 726.474 640.593C727.114 641.131 727.474 641.86 727.474 642.621C727.474 643.382 727.114 644.112 726.474 644.65C725.833 645.188 724.965 645.49 724.059 645.49C723.153 645.49 722.284 645.188 721.644 644.65C721.003 644.112 720.643 643.382 720.643 642.621ZM706.982 634.014C706.982 633.253 707.342 632.524 707.983 631.986C708.623 631.448 709.492 631.145 710.398 631.145C711.303 631.145 712.172 631.448 712.813 631.986C713.453 632.524 713.813 633.253 713.813 634.014C713.813 634.775 713.453 635.505 712.813 636.043C712.172 636.581 711.303 636.883 710.398 636.883C709.492 636.883 708.623 636.581 707.983 636.043C707.342 635.505 706.982 634.775 706.982 634.014ZM720.643 625.408C720.643 624.647 721.003 623.917 721.644 623.379C722.284 622.841 723.153 622.539 724.059 622.539C724.965 622.539 725.833 622.841 726.474 623.379C727.114 623.917 727.474 624.647 727.474 625.408C727.474 626.168 727.114 626.898 726.474 627.436C725.833 627.974 724.965 628.276 724.059 628.276C723.153 628.276 722.284 627.974 721.644 627.436C721.003 626.898 720.643 626.168 720.643 625.408ZM703.567 613.932C703.567 613.171 703.927 612.441 704.567 611.903C705.208 611.365 706.077 611.063 706.982 611.063C707.888 611.063 708.757 611.365 709.397 611.903C710.038 612.441 710.398 613.171 710.398 613.932C710.398 614.693 710.038 615.422 709.397 615.96C708.757 616.498 707.888 616.801 706.982 616.801C706.077 616.801 705.208 616.498 704.567 615.96C703.927 615.422 703.567 614.693 703.567 613.932ZM621.6 631.145C621.6 630.385 621.96 629.655 622.601 629.117C623.241 628.579 624.11 628.276 625.016 628.276C625.921 628.276 626.79 628.579 627.431 629.117C628.071 629.655 628.431 630.385 628.431 631.145C628.431 631.906 628.071 632.636 627.431 633.174C626.79 633.712 625.921 634.014 625.016 634.014C624.11 634.014 623.241 633.712 622.601 633.174C621.96 632.636 621.6 631.906 621.6 631.145ZM676.245 645.49C680.774 645.49 685.117 643.979 688.32 641.289C691.522 638.599 693.321 634.95 693.321 631.145C693.321 627.341 691.522 623.692 688.32 621.002C685.117 618.312 680.774 616.801 676.245 616.801C671.716 616.801 667.372 618.312 664.17 621.002C660.968 623.692 659.168 627.341 659.168 631.145C659.168 634.95 660.968 638.599 664.17 641.289C667.372 643.979 671.716 645.49 676.245 645.49V645.49ZM700.152 631.145C700.152 636.472 697.633 641.58 693.15 645.346C688.666 649.112 682.585 651.228 676.245 651.228C669.904 651.228 663.823 649.112 659.34 645.346C654.857 641.58 652.338 636.472 652.338 631.145C652.338 625.819 654.857 620.711 659.34 616.945C663.823 613.179 669.904 611.063 676.245 611.063C682.585 611.063 688.666 613.179 693.15 616.945C697.633 620.711 700.152 625.819 700.152 631.145V631.145ZM993.866 547.946C992.96 547.946 992.091 548.248 991.451 548.786C990.81 549.324 990.45 550.054 990.45 550.815C990.45 551.576 990.81 552.306 991.451 552.844C992.091 553.382 992.96 553.684 993.866 553.684H1000.7C1001.6 553.684 1002.47 553.382 1003.11 552.844C1003.75 552.306 1004.11 551.576 1004.11 550.815C1004.11 550.054 1003.75 549.324 1003.11 548.786C1002.47 548.248 1001.6 547.946 1000.7 547.946H993.866ZM1058.76 573.767C1058.76 573.006 1059.12 572.276 1059.76 571.738C1060.4 571.2 1061.27 570.898 1062.17 570.898H1069C1069.91 570.898 1070.78 571.2 1071.42 571.738C1072.06 572.276 1072.42 573.006 1072.42 573.767C1072.42 574.527 1072.06 575.257 1071.42 575.795C1070.78 576.333 1069.91 576.636 1069 576.636H1062.17C1061.27 576.636 1060.4 576.333 1059.76 575.795C1059.12 575.257 1058.76 574.527 1058.76 573.767ZM1010.94 588.111C1010.04 588.111 1009.17 588.414 1008.53 588.952C1007.89 589.49 1007.53 590.219 1007.53 590.98C1007.53 591.741 1007.89 592.471 1008.53 593.009C1009.17 593.547 1010.04 593.849 1010.94 593.849H1017.77C1018.68 593.849 1019.55 593.547 1020.19 593.009C1020.83 592.471 1021.19 591.741 1021.19 590.98C1021.19 590.219 1020.83 589.49 1020.19 588.952C1019.55 588.414 1018.68 588.111 1017.77 588.111H1010.94ZM925.56 590.98C924.654 590.98 923.786 591.282 923.145 591.821C922.505 592.359 922.145 593.088 922.145 593.849C922.145 594.61 922.505 595.34 923.145 595.878C923.786 596.416 924.654 596.718 925.56 596.718H932.391C933.297 596.718 934.165 596.416 934.806 595.878C935.446 595.34 935.806 594.61 935.806 593.849C935.806 593.088 935.446 592.359 934.806 591.821C934.165 591.282 933.297 590.98 932.391 590.98H925.56ZM942.637 602.456C941.731 602.456 940.862 602.758 940.222 603.296C939.581 603.834 939.221 604.564 939.221 605.325C939.221 606.086 939.581 606.816 940.222 607.354C940.862 607.892 941.731 608.194 942.637 608.194H949.467C950.373 608.194 951.242 607.892 951.882 607.354C952.523 606.816 952.882 606.086 952.882 605.325C952.882 604.564 952.523 603.834 951.882 603.296C951.242 602.758 950.373 602.456 949.467 602.456H942.637ZM973.374 602.456C973.374 601.695 973.734 600.965 974.374 600.427C975.015 599.889 975.884 599.587 976.789 599.587H983.62C984.526 599.587 985.394 599.889 986.035 600.427C986.675 600.965 987.035 601.695 987.035 602.456C987.035 603.217 986.675 603.947 986.035 604.485C985.394 605.023 984.526 605.325 983.62 605.325H976.789C975.884 605.325 975.015 605.023 974.374 604.485C973.734 603.947 973.374 603.217 973.374 602.456ZM1024.6 605.325C1024.6 604.564 1024.96 603.834 1025.6 603.296C1026.24 602.758 1027.11 602.456 1028.02 602.456H1034.85C1035.75 602.456 1036.62 602.758 1037.26 603.296C1037.9 603.834 1038.26 604.564 1038.26 605.325C1038.26 606.086 1037.9 606.816 1037.26 607.354C1036.62 607.892 1035.75 608.194 1034.85 608.194H1028.02C1027.11 608.194 1026.24 607.892 1025.6 607.354C1024.96 606.816 1024.6 606.086 1024.6 605.325ZM1065.59 599.587C1064.68 599.587 1063.81 599.889 1063.17 600.427C1062.53 600.965 1062.17 601.695 1062.17 602.456C1062.17 603.217 1062.53 603.947 1063.17 604.485C1063.81 605.023 1064.68 605.325 1065.59 605.325H1072.42C1073.32 605.325 1074.19 605.023 1074.83 604.485C1075.47 603.947 1075.83 603.217 1075.83 602.456C1075.83 601.695 1075.47 600.965 1074.83 600.427C1074.19 599.889 1073.32 599.587 1072.42 599.587H1065.59ZM1028.02 559.422C1028.02 558.661 1028.38 557.931 1029.02 557.393C1029.66 556.855 1030.53 556.553 1031.43 556.553H1038.26C1039.17 556.553 1040.04 556.855 1040.68 557.393C1041.32 557.931 1041.68 558.661 1041.68 559.422C1041.68 560.183 1041.32 560.912 1040.68 561.451C1040.04 561.989 1039.17 562.291 1038.26 562.291H1031.43C1030.53 562.291 1029.66 561.989 1029.02 561.451C1028.38 560.912 1028.02 560.183 1028.02 559.422ZM963.128 559.422C962.222 559.422 961.354 559.724 960.713 560.262C960.073 560.8 959.713 561.53 959.713 562.291C959.713 563.052 960.073 563.781 960.713 564.319C961.354 564.857 962.222 565.16 963.128 565.16H969.959C970.865 565.16 971.733 564.857 972.374 564.319C973.014 563.781 973.374 563.052 973.374 562.291C973.374 561.53 973.014 560.8 972.374 560.262C971.733 559.724 970.865 559.422 969.959 559.422H963.128ZM983.62 573.767C983.62 573.006 983.98 572.276 984.62 571.738C985.261 571.2 986.129 570.898 987.035 570.898H993.866C994.772 570.898 995.64 571.2 996.281 571.738C996.921 572.276 997.281 573.006 997.281 573.767C997.281 574.527 996.921 575.257 996.281 575.795C995.64 576.333 994.772 576.636 993.866 576.636H987.035C986.129 576.636 985.261 576.333 984.62 575.795C983.98 575.257 983.62 574.527 983.62 573.767ZM898.238 616.801C898.238 615.452 898.272 614.104 898.34 612.784C895.822 611.88 893.599 610.481 891.859 608.704C890.12 606.927 888.915 604.825 888.345 602.574C887.776 600.324 887.859 597.992 888.589 595.774C889.318 593.556 890.671 591.519 892.534 589.833C891.124 587.137 891.004 584.089 892.2 581.321C893.396 578.554 895.815 576.28 898.955 574.972C898.317 573.159 898.111 571.259 898.35 569.38C898.589 567.501 899.267 565.68 900.346 564.022C901.425 562.364 902.884 560.901 904.638 559.718C906.392 558.534 908.407 557.654 910.567 557.127C911.823 555.718 913.564 554.666 915.553 554.114C916.04 551.743 917.23 549.513 919.011 547.629C920.793 545.746 923.111 544.269 925.75 543.334C928.389 542.4 931.266 542.038 934.116 542.283C936.965 542.527 939.696 543.37 942.056 544.733C960.097 533.739 981.823 527.833 1004.11 527.863C1027.3 527.863 1048.72 534.118 1066.17 544.733C1068.53 543.37 1071.26 542.527 1074.11 542.283C1076.96 542.038 1079.83 542.4 1082.47 543.334C1085.11 544.269 1087.43 545.746 1089.21 547.629C1090.99 549.513 1092.18 551.743 1092.67 554.114C1094.67 554.661 1096.42 555.713 1097.69 557.127C1099.85 557.654 1101.87 558.534 1103.62 559.718C1105.37 560.901 1106.83 562.364 1107.91 564.022C1108.99 565.68 1109.67 567.501 1109.91 569.38C1110.15 571.259 1109.94 573.159 1109.3 574.972C1112.43 576.29 1114.84 578.567 1116.02 581.332C1117.21 584.097 1117.09 587.14 1115.69 589.833C1117.57 591.513 1118.93 593.55 1119.67 595.771C1120.41 597.991 1120.5 600.328 1119.93 602.583C1119.36 604.838 1118.15 606.944 1116.4 608.72C1114.65 610.496 1112.41 611.891 1109.88 612.784C1109.95 614.104 1109.99 615.452 1109.99 616.801V619.67H898.238V616.801V616.801ZM901.073 596.23C900.129 599.607 899.422 603.027 898.955 606.472C897.876 605.796 896.966 604.948 896.278 603.977C895.589 603.005 895.135 601.929 894.941 600.81C894.748 599.691 894.819 598.551 895.15 597.455C895.481 596.359 896.066 595.329 896.872 594.423C898.135 595.226 899.536 595.829 901.073 596.23V596.23ZM906.161 583.005C904.932 585.501 903.839 588.054 902.883 590.693C901.586 590.329 900.45 589.647 899.62 588.735C898.791 587.822 898.306 586.722 898.229 585.576C898.151 584.429 898.485 583.29 899.187 582.305C899.889 581.32 900.926 580.534 902.165 580.05C903.293 581.197 904.659 582.201 906.161 583.005V583.005ZM914.085 569.98C912.241 572.447 910.567 575.029 908.996 577.668C907.791 576.877 906.812 575.868 906.132 574.718C905.451 573.567 905.086 572.302 905.063 571.017C905.04 569.732 905.36 568.459 905.999 567.292C906.638 566.124 907.581 565.092 908.757 564.27C909.097 565.49 909.75 566.633 910.67 567.62C911.59 568.606 912.756 569.411 914.085 569.98V569.98ZM917.978 565.102C919.174 563.668 920.437 562.291 921.735 560.914C921.464 560.491 921.071 560.132 920.591 559.87C920.112 559.608 919.562 559.452 918.992 559.414C918.422 559.377 917.85 559.461 917.329 559.658C916.808 559.855 916.353 560.158 916.008 560.541C915.662 560.923 915.436 561.373 915.351 561.848C915.266 562.323 915.324 562.808 915.521 563.259C915.717 563.71 916.044 564.113 916.474 564.43C916.903 564.747 917.421 564.968 917.978 565.074V565.102ZM936.216 548.549C932.698 551.016 929.385 553.684 926.312 556.496C925.264 555.527 923.968 554.771 922.521 554.286C922.9 553.118 923.568 552.03 924.482 551.094C925.396 550.157 926.534 549.393 927.824 548.851C929.113 548.31 930.524 548.003 931.964 547.951C933.404 547.899 934.842 548.102 936.182 548.549H936.216ZM1081.91 556.496C1078.84 553.684 1075.53 551.045 1072.01 548.549C1073.35 548.097 1074.79 547.89 1076.23 547.94C1077.68 547.99 1079.09 548.295 1080.39 548.837C1081.68 549.379 1082.82 550.145 1083.74 551.084C1084.65 552.023 1085.32 553.115 1085.7 554.286C1084.27 554.775 1082.98 555.53 1081.95 556.496H1081.91ZM1086.49 560.914C1087.79 562.291 1089.05 563.668 1090.24 565.074C1090.8 564.968 1091.32 564.747 1091.75 564.43C1092.18 564.113 1092.51 563.71 1092.7 563.259C1092.9 562.808 1092.96 562.323 1092.87 561.848C1092.79 561.373 1092.56 560.923 1092.22 560.541C1091.87 560.158 1091.42 559.855 1090.89 559.658C1090.37 559.461 1089.8 559.377 1089.23 559.414C1088.66 559.452 1088.11 559.608 1087.63 559.87C1087.15 560.132 1086.76 560.491 1086.49 560.914ZM1099.23 577.668C1097.66 575.029 1095.98 572.447 1094.1 569.98C1095.44 569.414 1096.61 568.61 1097.54 567.624C1098.46 566.638 1099.12 565.493 1099.47 564.27C1100.64 565.092 1101.58 566.124 1102.22 567.292C1102.86 568.459 1103.18 569.732 1103.16 571.017C1103.14 572.302 1102.77 573.567 1102.09 574.718C1101.41 575.868 1100.43 576.877 1099.23 577.668V577.668ZM1105.37 590.665C1104.38 588.083 1103.33 585.501 1102.06 583.005C1103.56 582.201 1104.93 581.197 1106.06 580.05C1107.29 580.536 1108.32 581.319 1109.01 582.299C1109.71 583.279 1110.04 584.411 1109.97 585.55C1109.89 586.69 1109.42 587.785 1108.6 588.696C1107.78 589.607 1106.66 590.292 1105.37 590.665ZM1109.27 606.472C1108.79 603.001 1108.07 599.587 1107.15 596.23C1108.69 595.829 1110.09 595.226 1111.35 594.423C1112.16 595.326 1112.75 596.354 1113.09 597.45C1113.43 598.545 1113.5 599.686 1113.31 600.806C1113.12 601.926 1112.67 603.003 1111.98 603.976C1111.29 604.948 1110.38 605.797 1109.3 606.472H1109.27ZM1103.15 613.932C1102.33 592.34 1091.54 571.866 1073.06 556.838C1054.59 541.81 1029.88 533.408 1004.16 533.408C978.446 533.408 953.738 541.81 935.264 556.838C916.79 571.866 905.998 592.34 905.171 613.932H1103.12H1103.15ZM410.98 568.373C410.263 567.455 409.819 566.365 409.819 565.16V530.732H402.988V565.16C403.008 567.517 403.889 569.812 405.512 571.735C407.135 573.658 409.423 575.116 412.064 575.911C414.706 576.706 417.575 576.8 420.283 576.18C422.99 575.561 425.406 574.257 427.203 572.447C429.149 570.467 430.311 567.943 430.311 565.16V530.732H423.48V565.16C423.485 565.914 423.311 566.662 422.969 567.36C422.628 568.058 422.125 568.692 421.489 569.226C420.854 569.759 420.1 570.182 419.269 570.469C418.438 570.756 417.548 570.901 416.649 570.898C415.531 570.899 414.428 570.67 413.44 570.229C412.451 569.789 411.607 569.152 410.98 568.373ZM420.099 504.912C421.397 504.912 422.626 504.797 423.856 504.568C424.349 506.403 425.372 508.109 426.835 509.534C428.297 510.959 430.154 512.06 432.243 512.74C434.331 513.42 436.587 513.659 438.811 513.434C441.035 513.21 443.159 512.53 444.996 511.453C448.845 517.364 450.854 523.995 450.836 530.732V599.587C450.836 604.152 448.677 608.531 444.835 611.759C440.992 614.987 435.779 616.801 430.345 616.801H420.099V642.621C420.099 646.426 418.3 650.074 415.097 652.764C411.895 655.455 407.551 656.966 403.023 656.966C398.494 656.966 394.15 655.455 390.948 652.764C387.745 650.074 385.946 646.426 385.946 642.621V616.801H375.7C370.266 616.801 365.053 614.987 361.21 611.759C357.368 608.531 355.209 604.152 355.209 599.587V530.732C355.209 520.08 360.246 509.864 369.213 502.331C378.18 494.799 390.341 490.567 403.023 490.567C403.023 494.372 404.822 498.02 408.024 500.711C411.227 503.401 415.57 504.912 420.099 504.912V504.912ZM362.039 547.946V582.373C362.036 583.501 362.43 584.603 363.171 585.543C363.913 586.482 364.969 587.216 366.206 587.652C367.664 588.174 369.293 588.253 370.814 587.876C372.334 587.499 373.651 586.69 374.539 585.587C375.256 584.669 375.7 583.578 375.7 582.373V547.946H382.531V582.373C382.549 584.219 382.035 586.041 381.031 587.684C380.027 589.326 378.565 590.739 376.768 591.803C374.972 592.866 372.895 593.548 370.717 593.789C368.538 594.031 366.322 593.825 364.259 593.189C363.49 592.959 362.747 592.671 362.039 592.329V599.587C362.039 602.631 363.478 605.55 366.04 607.702C368.602 609.854 372.077 611.063 375.7 611.063H430.345C433.968 611.063 437.443 609.854 440.005 607.702C442.567 605.55 444.006 602.631 444.006 599.587V530.732C444.04 526.343 443.22 522.47 441.547 518.769C440.078 519.056 438.576 519.228 437.175 519.257C433.576 519.259 430.04 518.464 426.922 516.953C423.804 515.442 421.216 513.268 419.416 510.65C414.459 510.53 409.669 509.117 405.71 506.609C401.751 504.1 398.819 500.62 397.319 496.649C387.536 497.804 378.578 501.889 372.096 508.152C365.613 514.414 362.042 522.433 362.039 530.732V547.946ZM392.777 616.801V642.621C392.777 644.904 393.856 647.093 395.778 648.707C397.699 650.321 400.305 651.228 403.023 651.228C405.74 651.228 408.346 650.321 410.267 648.707C412.189 647.093 413.268 644.904 413.268 642.621V616.801H392.777Z" fill="black"/>
<path id="Vector_6" fill-rule="evenodd" clip-rule="evenodd" d="M105.893 547.946C104.988 547.946 104.119 548.248 103.478 548.786C102.838 549.324 102.478 550.054 102.478 550.815C102.478 551.576 102.838 552.306 103.478 552.844C104.119 553.382 104.988 553.684 105.893 553.684H112.724C113.63 553.684 114.498 553.382 115.139 552.844C115.779 552.306 116.139 551.576 116.139 550.815C116.139 550.054 115.779 549.324 115.139 548.786C114.498 548.248 113.63 547.946 112.724 547.946H105.893ZM170.784 573.766C170.784 573.006 171.143 572.276 171.784 571.738C172.424 571.2 173.293 570.898 174.199 570.898H181.029C181.935 570.898 182.804 571.2 183.444 571.738C184.085 572.276 184.445 573.006 184.445 573.766C184.445 574.527 184.085 575.257 183.444 575.795C182.804 576.333 181.935 576.635 181.029 576.635H174.199C173.293 576.635 172.424 576.333 171.784 575.795C171.143 575.257 170.784 574.527 170.784 573.766V573.766ZM122.97 588.111C122.064 588.111 121.195 588.413 120.555 588.951C119.914 589.49 119.554 590.219 119.554 590.98C119.554 591.741 119.914 592.471 120.555 593.009C121.195 593.547 122.064 593.849 122.97 593.849H129.8C130.706 593.849 131.575 593.547 132.215 593.009C132.856 592.471 133.216 591.741 133.216 590.98C133.216 590.219 132.856 589.49 132.215 588.951C131.575 588.413 130.706 588.111 129.8 588.111H122.97ZM37.5878 590.98C36.682 590.98 35.8133 591.282 35.1728 591.82C34.5323 592.358 34.1725 593.088 34.1725 593.849C34.1725 594.61 34.5323 595.34 35.1728 595.878C35.8133 596.416 36.682 596.718 37.5878 596.718H44.4183C45.3241 596.718 46.1928 596.416 46.8333 595.878C47.4738 595.34 47.8336 594.61 47.8336 593.849C47.8336 593.088 47.4738 592.358 46.8333 591.82C46.1928 591.282 45.3241 590.98 44.4183 590.98H37.5878ZM54.6642 602.456C53.7584 602.456 52.8897 602.758 52.2492 603.296C51.6087 603.834 51.2489 604.564 51.2489 605.325C51.2489 606.086 51.6087 606.815 52.2492 607.353C52.8897 607.892 53.7584 608.194 54.6642 608.194H61.4947C62.4005 608.194 63.2692 607.892 63.9097 607.353C64.5502 606.815 64.91 606.086 64.91 605.325C64.91 604.564 64.5502 603.834 63.9097 603.296C63.2692 602.758 62.4005 602.456 61.4947 602.456H54.6642ZM85.4017 602.456C85.4017 601.695 85.7615 600.965 86.402 600.427C87.0425 599.889 87.9112 599.587 88.817 599.587H95.6475C96.5533 599.587 97.422 599.889 98.0625 600.427C98.703 600.965 99.0628 601.695 99.0628 602.456C99.0628 603.217 98.703 603.947 98.0625 604.485C97.422 605.023 96.5533 605.325 95.6475 605.325H88.817C87.9112 605.325 87.0425 605.023 86.402 604.485C85.7615 603.947 85.4017 603.217 85.4017 602.456ZM136.631 605.325C136.631 604.564 136.991 603.834 137.631 603.296C138.272 602.758 139.14 602.456 140.046 602.456H146.877C147.782 602.456 148.651 602.758 149.292 603.296C149.932 603.834 150.292 604.564 150.292 605.325C150.292 606.086 149.932 606.815 149.292 607.353C148.651 607.892 147.782 608.194 146.877 608.194H140.046C139.14 608.194 138.272 607.892 137.631 607.353C136.991 606.815 136.631 606.086 136.631 605.325ZM177.614 599.587C176.708 599.587 175.84 599.889 175.199 600.427C174.559 600.965 174.199 601.695 174.199 602.456C174.199 603.217 174.559 603.947 175.199 604.485C175.84 605.023 176.708 605.325 177.614 605.325H184.445C185.351 605.325 186.219 605.023 186.86 604.485C187.5 603.947 187.86 603.217 187.86 602.456C187.86 601.695 187.5 600.965 186.86 600.427C186.219 599.889 185.351 599.587 184.445 599.587H177.614ZM140.046 559.422C140.046 558.661 140.406 557.931 141.046 557.393C141.687 556.855 142.556 556.553 143.461 556.553H150.292C151.198 556.553 152.066 556.855 152.707 557.393C153.347 557.931 153.707 558.661 153.707 559.422C153.707 560.183 153.347 560.912 152.707 561.45C152.066 561.988 151.198 562.291 150.292 562.291H143.461C142.556 562.291 141.687 561.988 141.046 561.45C140.406 560.912 140.046 560.183 140.046 559.422ZM75.1558 559.422C74.2501 559.422 73.3814 559.724 72.7409 560.262C72.1004 560.8 71.7406 561.53 71.7406 562.291C71.7406 563.052 72.1004 563.781 72.7409 564.319C73.3814 564.857 74.2501 565.16 75.1558 565.16H81.9864C82.8922 565.16 83.7609 564.857 84.4014 564.319C85.0419 563.781 85.4017 563.052 85.4017 562.291C85.4017 561.53 85.0419 560.8 84.4014 560.262C83.7609 559.724 82.8922 559.422 81.9864 559.422H75.1558ZM95.6475 573.766C95.6475 573.006 96.0073 572.276 96.6478 571.738C97.2883 571.2 98.157 570.898 99.0628 570.898H105.893C106.799 570.898 107.668 571.2 108.308 571.738C108.949 572.276 109.309 573.006 109.309 573.766C109.309 574.527 108.949 575.257 108.308 575.795C107.668 576.333 106.799 576.635 105.893 576.635H99.0628C98.157 576.635 97.2883 576.333 96.6478 575.795C96.0073 575.257 95.6475 574.527 95.6475 573.766ZM10.2656 616.801C10.2656 615.452 10.2997 614.104 10.368 612.784C7.84946 611.88 5.62663 610.481 3.88707 608.704C2.1475 606.927 0.942241 604.825 0.37297 602.574C-0.1963 600.324 -0.112882 597.992 0.616195 595.774C1.34527 593.556 2.69863 591.519 4.56205 589.833C3.15178 587.137 3.03207 584.089 4.22781 581.321C5.42355 578.554 7.84278 576.28 10.9828 574.971C10.3446 573.159 10.1389 571.259 10.3776 569.38C10.6163 567.501 11.2947 565.68 12.3737 564.022C13.4527 562.364 14.9112 560.901 16.6652 559.717C18.4193 558.534 20.4343 557.654 22.5947 557.127C23.851 555.718 25.5913 554.666 27.581 554.114C28.068 551.743 29.2571 549.513 31.039 547.629C32.8208 545.746 35.1382 544.268 37.7776 543.334C40.4171 542.4 43.294 542.038 46.1434 542.283C48.9929 542.527 51.7234 543.37 54.0836 544.733C72.1251 533.739 93.8509 527.833 116.139 527.863C139.329 527.863 160.743 534.118 178.195 544.733C180.555 543.37 183.285 542.527 186.135 542.283C188.984 542.038 191.861 542.4 194.501 543.334C197.14 544.268 199.458 545.746 201.239 547.629C203.021 549.513 204.21 551.743 204.697 554.114C206.7 554.661 208.453 555.713 209.718 557.127C211.878 557.654 213.893 558.534 215.647 559.717C217.401 560.901 218.86 562.364 219.939 564.022C221.018 565.68 221.696 567.501 221.935 569.38C222.174 571.259 221.968 573.159 221.33 574.971C224.458 576.29 226.864 578.567 228.052 581.332C229.241 584.097 229.12 587.14 227.716 589.833C229.595 591.513 230.962 593.55 231.7 595.771C232.438 597.991 232.526 600.328 231.955 602.583C231.385 604.838 230.173 606.944 228.424 608.72C226.675 610.496 224.44 611.891 221.91 612.784C221.979 614.104 222.013 615.452 222.013 616.801V619.67H10.2656V616.801V616.801ZM13.1002 596.23C12.1565 599.607 11.4495 603.027 10.9828 606.472C9.90375 605.796 8.99388 604.948 8.30517 603.977C7.61646 603.005 7.16239 601.929 6.96891 600.81C6.77544 599.691 6.84636 598.551 7.17761 597.455C7.50886 596.359 8.09394 595.329 8.89944 594.423C10.1631 595.226 11.5634 595.829 13.1002 596.23ZM18.189 583.004C16.9595 585.5 15.8666 588.054 14.9103 590.693C13.6141 590.329 12.4776 589.647 11.6479 588.735C10.8182 587.822 10.3334 586.722 10.2562 585.576C10.1789 584.429 10.5128 583.29 11.2147 582.305C11.9165 581.32 12.9541 580.534 14.1931 580.049C15.3202 581.197 16.6863 582.201 18.189 583.004ZM26.1124 569.979C24.2682 572.447 22.5947 575.029 21.0237 577.668C19.8186 576.877 18.8398 575.868 18.1592 574.717C17.4786 573.567 17.1134 572.302 17.0905 571.017C17.0676 569.732 17.3875 568.459 18.0267 567.292C18.666 566.124 19.6083 565.092 20.7846 564.27C21.1244 565.49 21.7773 566.633 22.6975 567.619C23.6177 568.606 24.7832 569.411 26.1124 569.979V569.979ZM30.0059 565.102C31.2012 563.668 32.4649 562.291 33.7627 560.914C33.4914 560.491 33.0982 560.132 32.619 559.87C32.1399 559.608 31.5901 559.451 31.0201 559.414C30.4501 559.377 29.8782 559.461 29.3567 559.658C28.8352 559.855 28.3808 560.158 28.0353 560.541C27.6898 560.923 27.4641 561.373 27.379 561.848C27.2939 562.323 27.3521 562.808 27.5482 563.259C27.7443 563.71 28.0721 564.113 28.5015 564.43C28.9309 564.747 29.4481 564.968 30.0059 565.074V565.102ZM48.2434 548.548C44.7257 551.016 41.4129 553.684 38.3391 556.495C37.2919 555.527 35.9953 554.771 34.5482 554.286C34.9272 553.118 35.5955 552.03 36.5094 551.093C37.4232 550.157 38.562 549.393 39.8514 548.851C41.1407 548.31 42.5516 548.003 43.9919 547.951C45.4321 547.899 46.8692 548.102 48.2093 548.548H48.2434ZM193.939 556.495C190.865 553.684 187.553 551.044 184.035 548.548C185.377 548.097 186.817 547.89 188.261 547.94C189.706 547.989 191.121 548.295 192.414 548.837C193.708 549.379 194.85 550.145 195.766 551.084C196.683 552.023 197.352 553.115 197.73 554.286C196.295 554.775 195.011 555.53 193.973 556.495H193.939ZM198.516 560.914C199.813 562.291 201.077 563.668 202.273 565.074C202.83 564.968 203.348 564.747 203.777 564.43C204.206 564.113 204.534 563.71 204.73 563.259C204.926 562.808 204.984 562.323 204.899 561.848C204.814 561.373 204.589 560.923 204.243 560.541C203.898 560.158 203.443 559.855 202.922 559.658C202.4 559.461 201.828 559.377 201.258 559.414C200.688 559.451 200.138 559.608 199.659 559.87C199.18 560.132 198.787 560.491 198.516 560.914V560.914ZM211.255 577.668C209.684 575.029 208.01 572.447 206.132 569.979C207.467 569.414 208.639 568.61 209.566 567.624C210.492 566.638 211.15 565.493 211.494 564.27C212.67 565.092 213.612 566.124 214.252 567.292C214.891 568.459 215.211 569.732 215.188 571.017C215.165 572.302 214.8 573.567 214.119 574.717C213.439 575.868 212.46 576.877 211.255 577.668V577.668ZM217.402 590.665C216.412 588.082 215.353 585.5 214.089 583.004C215.592 582.201 216.958 581.197 218.085 580.049C219.314 580.536 220.343 581.319 221.039 582.299C221.736 583.278 222.069 584.41 221.995 585.55C221.922 586.69 221.446 587.785 220.628 588.696C219.809 589.607 218.686 590.292 217.402 590.665ZM221.296 606.472C220.817 603.001 220.1 599.587 219.178 596.23C220.715 595.829 222.115 595.226 223.379 594.423C224.191 595.326 224.782 596.354 225.118 597.45C225.455 598.545 225.53 599.686 225.339 600.806C225.149 601.926 224.696 603.003 224.008 603.976C223.32 604.948 222.41 605.797 221.33 606.472H221.296ZM215.182 613.932C214.355 592.34 203.563 571.866 185.089 556.838C166.615 541.81 141.907 533.408 116.19 533.408C90.4741 533.408 65.766 541.81 47.2917 556.838C28.8174 571.866 18.0256 592.34 17.1986 613.932H215.148H215.182Z" fill="black"/>
</g>
</g>
</g>
</svg>
